<?xml version="1.0" encoding="utf-8"?>
<!-- Generator: Adobe Illustrator 24.3.0, SVG Export Plug-In . SVG Version: 6.00 Build 0)  -->
<svg version="1.1" id="Слой_1" xmlns="http://www.w3.org/2000/svg" xmlns:xlink="http://www.w3.org/1999/xlink" x="0px" y="0px"
	 viewBox="0 0 400 160" style="enable-background:new 0 0 400 160;" xml:space="preserve">
<style type="text/css">
	.st0{fill:#575756;}
</style>
<g>
	<path class="st0" d="M295.39,103.4c0,0.01,0,0.01,0,0.02c3.34,0,6.68,0.07,10.01-0.04c1.27-0.04,2.52-0.48,3.78-0.74
		c-0.51-1.14-0.95-2.33-1.57-3.41c-0.49-0.86-1.29-1.55-1.79-2.4c-1.7-2.91-0.48-5.68,2.8-6.34c2.29-0.46,4.6-0.8,6.9-1.2
		c2.21-0.38,3.64-1.47,3.78-3.91c0.07-1.16,0.4-2.3,0.59-3.45c1.44-9.06,1.53-9.27-6.79-12.82c-3.99-1.7-6.34-3.99-6.32-8.42
		c0-0.65-0.19-1.33-0.41-1.96c-0.94-2.68,0.2-4.27,2.38-5.85c7.16-5.17,7.68-3.97,3.11-13.07c-0.07-0.15-0.15-0.3-0.23-0.45
		c-4.42-8.19-2.99-8.04-12.54-6.57c-3.71,0.57-6.11-0.45-8.9-2.85c-4.01-3.44-5.75-7.05-3.91-12.13c0.17-0.46,0.14-0.99,0.27-1.48
		c0.61-2.27-0.22-3.9-2.2-5.03c-3.04-1.74-6.16-3.36-9.1-5.25c-2.74-1.77-5.12-1.5-7.02,0.99c-3.75,4.92-8.49,5.96-14.15,4.09
		c-0.47-0.15-0.99-0.18-1.49-0.18c-2.52-0.02-4.16-1.31-4.74-3.66c-1.77-7.11-6.18-8.63-13.08-7.62c-8.01,1.17-7.98-0.98-9.7,8.57
		c-1.05,5.86-7.87,8.61-12.99,5.43c-5.06-3.15-8.04-2.98-12.43,0.85c-0.38,0.33-0.58,1.62-0.32,1.84c4.12,3.55,7.89,7.88,14.28,6.73
		c1.45-0.26,3-0.05,4.5,0c10.16,0.37,20.41,0.05,30.47,1.3c15.15,1.88,27.5,9.34,35.71,22.42c9.3,14.81,9.96,35.19-4.22,50.55
		c-2.46,2.67-3.55,3.44,1.41,5.32c1.22,0.46,2.6,0.65,3.91,0.69C288.71,103.46,292.05,103.4,295.39,103.4z"/>
	<path class="st0" d="M116.2,50.81c-0.01,0-0.02,0-0.03,0c0,10.19,0,20.38,0,30.57c0,5.7,0.02,5.82,5.88,5.87
		c8.01,0.08,16.03,0.01,24.04-0.03c10.72-0.06,9.41,1.36,9.67-10.2c0.06-2.82-1.18-4.46-3.89-4.9c-2.96-0.49-5.93-0.95-8.91-1.21
		c-2.64-0.23-3.9-1.5-3.89-4.14c0.01-2.84-0.14-5.68-0.06-8.51c0.17-6.01,0.14-6.08-6.05-5.96c-1.5,0.03-3.03,0.22-4.5,0.02
		c-0.84-0.11-2.32-1.07-2.26-1.28c0.34-1.16,0.85-2.46,1.72-3.21c0.62-0.53,1.92-0.29,2.91-0.33c1.67-0.06,3.34-0.04,5.01-0.1
		c1.73-0.06,3-0.83,2.92-2.69c-0.16-3.82,2.14-4.28,5.17-4.24c6.34,0.07,12.69,0.02,19.03-0.05c5.18-0.06,5.18-0.11,5.57-5.24
		c0.36-4.73,0.99-5.45,5.73-5.63c4-0.15,8.01,0.02,12.02-0.1c2.96-0.09,3.16-0.5,1.68-3.25c-1.42-2.65-3.16-5.13-4.43-7.84
		c-1.25-2.66-3.11-3.49-5.94-3.47c-18.86,0.08-37.73,0.01-56.59,0.04c-4.64,0.01-4.75,0.15-4.77,4.82
		C116.17,30.1,116.2,40.46,116.2,50.81z"/>
	<path class="st0" d="M169.22,103.76c0-0.04,0-0.07,0-0.11c30.22,0,60.44,0.01,90.65,0c6.3,0,6.38-0.12,6.06-6.5
		c-0.03-0.5-0.06-1-0.07-1.5c-0.02-2.48-1.28-3.59-3.74-3.63c-4.34-0.08-8.68-0.38-13.01-0.38c-54.92-0.03-109.84-0.02-164.77,0
		c-2.67,0-5.34,0.19-8.01,0.28c-1.8,0.07-3.56,0.47-3.51,2.66c0.07,2.92,0.46,5.85,0.86,8.75c0.03,0.21,1.22,0.34,1.87,0.37
		c1.5,0.07,3,0.06,4.51,0.06C109.79,103.77,139.5,103.76,169.22,103.76z"/>
	<path class="st0" d="M204.64,34.37c0-0.02,0-0.04,0-0.06c-8.19,0-16.37-0.02-24.56,0.01c-4.94,0.02-5.6,0.62-5.64,5.41
		c-0.07,8.19-0.05,16.38-0.04,24.57c0,1,0.01,2.02,0.19,3c0.77,4.26,3.59,5.59,7.27,3.36c1.42-0.86,2.79-1.87,4-3.01
		c3.12-2.94,6.73-3.86,10.98-3.78c13.19,0.26,26.39,0.38,39.58,0.27c11.04-0.1,9.49,0.17,9.5-10.05c0-2.02-0.59-4.31-1.64-6.01
		c-2.1-3.4-4.85-6.38-7.08-9.71c-1.97-2.93-4.47-4.12-8-4.05C221.01,34.48,212.82,34.37,204.64,34.37z"/>
	<path class="st0" d="M110.7,51.28c-0.01,0-0.03,0-0.04,0c0-10.5,0.04-21.01-0.02-31.51c-0.02-4.47-1.06-5.36-5.35-4.7
		c-1.28,0.2-2.61,0.68-3.69,1.38c-5.87,3.81-11.65,7.75-17.51,11.59c-2.19,1.43-2.92,3.37-2.91,5.93c0.06,16.17,0,32.35,0.07,48.52
		c0.02,4.09,0.52,4.66,4.63,4.75c6.66,0.14,13.33,0.1,19.99-0.02c4.56-0.08,4.8-0.36,4.82-4.92
		C110.73,71.95,110.7,61.61,110.7,51.28z"/>
	<path class="st0" d="M199.57,119.29c18.54,0,37.08,0,55.62,0c40.08,0,80.17,0.01,120.25,0c1.33,0,2.67-0.06,4-0.14
		c1.65-0.11,2.92-0.6,2.81-2.67c-0.1-1.8-1.23-2.18-2.69-2.24c-1.33-0.05-2.67-0.08-4.01-0.08c-117.58-0.02-235.16-0.04-352.74-0.05
		c-1.17,0-2.46-0.24-3.47,0.17c-0.85,0.35-1.89,1.48-1.9,2.27c-0.01,0.82,1,2.18,1.79,2.37c1.75,0.43,3.64,0.35,5.47,0.35
		C82.99,119.29,141.28,119.29,199.57,119.29z"/>
	<path class="st0" d="M217.67,66.4c0-0.01,0-0.02,0-0.03c-3.99,0-7.99-0.04-11.98,0.02c-1.8,0.02-3.27,0.46-3.15,2.84
		c0.11,2.19,0.92,3.47,3.27,3.44c1.16-0.01,2.33,0.05,3.49,0.06c8.05,0.01,7.03-0.47,7.14,7.39c0.02,1.17,0.08,2.33,0.03,3.5
		c-0.12,2.55,1.2,3.64,3.61,3.67c2.83,0.04,5.66,0.02,8.48,0.1c2.62,0.07,3.46-1.3,3.43-3.73c-0.06-4.49-0.08-9,0.09-13.49
		c0.11-2.92-1.3-3.82-3.92-3.77C224.66,66.44,221.16,66.4,217.67,66.4z"/>
</g>
<g>
	<path class="st0" d="M24.69,160.11v-24.08h-8.6v-4.9h23.03v4.9h-8.58v24.08H24.69z"/>
	<path class="st0" d="M42.9,160.11v-28.98h21.49v4.9H48.75v6.43H63.3v4.88H48.75v7.89h16.19v4.88H42.9z"/>
	<path class="st0" d="M66.96,160.11l9.9-15.12l-8.98-13.86h6.84l5.81,9.31l5.69-9.31h6.78L84,145.21l9.9,14.91h-7.06l-6.42-10.02
		l-6.44,10.02H66.96z"/>
	<path class="st0" d="M96.99,131.13h23.05v28.98h-5.85V136h-11.35v24.12h-5.85V131.13z"/>
	<path class="st0" d="M126.01,160.11v-28.98h9.39c3.56,0,5.88,0.15,6.96,0.43c1.66,0.43,3.05,1.38,4.17,2.84
		c1.12,1.46,1.68,3.34,1.68,5.65c0,1.78-0.32,3.28-0.97,4.49c-0.65,1.21-1.47,2.16-2.46,2.86c-1,0.69-2.01,1.15-3.04,1.37
		c-1.4,0.28-3.42,0.42-6.07,0.42h-3.82v10.93H126.01z M131.86,136.04v8.22h3.2c2.31,0,3.85-0.15,4.63-0.45
		c0.78-0.3,1.39-0.78,1.83-1.42c0.44-0.65,0.66-1.4,0.66-2.25c0-1.06-0.31-1.92-0.93-2.61c-0.62-0.68-1.4-1.11-2.35-1.29
		c-0.7-0.13-2.1-0.2-4.21-0.2H131.86z"/>
	<path class="st0" d="M151.29,145.8c0-2.95,0.44-5.43,1.32-7.43c0.66-1.48,1.56-2.8,2.7-3.97c1.14-1.17,2.39-2.04,3.75-2.61
		c1.81-0.76,3.89-1.15,6.25-1.15c4.27,0,7.69,1.32,10.25,3.97c2.56,2.65,3.84,6.33,3.84,11.05c0,4.68-1.27,8.34-3.82,10.98
		c-2.54,2.64-5.94,3.96-10.2,3.96c-4.31,0-7.74-1.32-10.28-3.95C152.56,154.04,151.29,150.42,151.29,145.8z M157.32,145.6
		c0,3.28,0.76,5.77,2.27,7.46c1.51,1.69,3.44,2.54,5.77,2.54s4.25-0.84,5.74-2.52c1.5-1.68,2.24-4.2,2.24-7.56
		c0-3.32-0.73-5.8-2.18-7.43c-1.46-1.63-3.39-2.45-5.8-2.45c-2.41,0-4.36,0.83-5.83,2.48C158.06,139.78,157.32,142.27,157.32,145.6z
		"/>
	<path class="st0" d="M183.89,160.11v-28.98h8.76l5.26,19.77l5.2-19.77h8.78v28.98h-5.44V137.3l-5.75,22.81h-5.63l-5.73-22.81v22.81
		H183.89z"/>
	<path class="st0" d="M217.78,131.13h23.05v28.98h-5.85V136h-11.35v24.12h-5.85V131.13z"/>
	<path class="st0" d="M246.8,160.11v-28.98h9.39c3.56,0,5.88,0.15,6.96,0.43c1.66,0.43,3.05,1.38,4.17,2.84
		c1.12,1.46,1.68,3.34,1.68,5.65c0,1.78-0.32,3.28-0.97,4.49c-0.65,1.21-1.46,2.16-2.46,2.86c-1,0.69-2.01,1.15-3.03,1.37
		c-1.4,0.28-3.42,0.42-6.07,0.42h-3.82v10.93H246.8z M252.65,136.04v8.22h3.2c2.31,0,3.85-0.15,4.63-0.45
		c0.78-0.3,1.39-0.78,1.83-1.42s0.66-1.4,0.66-2.25c0-1.06-0.31-1.92-0.93-2.61s-1.4-1.11-2.35-1.29c-0.7-0.13-2.1-0.2-4.21-0.2
		H252.65z"/>
	<path class="st0" d="M272.08,145.8c0-2.95,0.44-5.43,1.32-7.43c0.66-1.48,1.56-2.8,2.7-3.97c1.14-1.17,2.39-2.04,3.75-2.61
		c1.81-0.76,3.89-1.15,6.25-1.15c4.27,0,7.69,1.32,10.25,3.97c2.56,2.65,3.84,6.33,3.84,11.05c0,4.68-1.27,8.34-3.81,10.98
		s-5.94,3.96-10.2,3.96c-4.31,0-7.74-1.32-10.28-3.95C273.35,154.04,272.08,150.42,272.08,145.8z M278.11,145.6
		c0,3.28,0.76,5.77,2.27,7.46c1.51,1.69,3.44,2.54,5.77,2.54c2.33,0,4.25-0.84,5.74-2.52c1.5-1.68,2.25-4.2,2.25-7.56
		c0-3.32-0.73-5.8-2.19-7.43c-1.46-1.63-3.39-2.45-5.8-2.45c-2.41,0-4.36,0.83-5.83,2.48C278.85,139.78,278.11,142.27,278.11,145.6z
		"/>
	<path class="st0" d="M304.76,160.11v-28.98h21.49v4.9h-15.64v6.43h14.55v4.88h-14.55v7.89h16.19v4.88H304.76z"/>
	<path class="st0" d="M331.86,131.13h5.85v12.34c1.3-0.13,2.19-0.47,2.65-1.01c0.46-0.54,1.17-2.04,2.14-4.51
		c1.21-3.14,2.43-5.09,3.66-5.85c1.21-0.76,3.17-1.15,5.87-1.15c0.13,0,0.41-0.01,0.85-0.02v4.33l-0.83-0.02
		c-1.2,0-2.07,0.15-2.63,0.45c-0.55,0.3-1,0.75-1.34,1.35s-0.85,1.85-1.52,3.74c-0.36,1-0.74,1.84-1.16,2.51
		c-0.42,0.67-1.15,1.3-2.21,1.9c1.31,0.37,2.38,1.11,3.23,2.23c0.85,1.12,1.78,2.7,2.8,4.74l3.95,7.95h-6.88l-3.46-7.49
		c-0.05-0.11-0.17-0.31-0.34-0.61c-0.07-0.1-0.31-0.56-0.73-1.36c-0.75-1.42-1.37-2.31-1.85-2.67s-1.22-0.54-2.2-0.55v12.69h-5.85
		V131.13z"/>
	<path class="st0" d="M364.01,160.11v-24.08h-8.6v-4.9h23.03v4.9h-8.58v24.08H364.01z"/>
</g>
</svg>
